<?xml version="1.0" encoding="utf-8"?>
<svg fill="#000000" width="20px" height="20px" viewBox="0 0 20 20" xmlns="http://www.w3.org/2000/svg">
    <path d="M16,0 C18.209139,0 20,1.790861 20,4 L20,16 C20,18.209139 18.209139,20 16,20 L4,20 C1.790861,20 0,18.209139 0,16 L0,4 C0,1.790861 1.790861,0 4,0 L16,0 Z M16,2 L4,2 C2.9456382,2 2.08183488,2.81587779 2.00548574,3.85073766 L2,4 L2,16 C2,17.0543618 2.81587779,17.9181651 3.85073766,17.9945143 L4,18 L16,18 C17.0543618,18 17.9181651,17.1841222 17.9945143,16.1492623 L18,16 L18,4 C18,2.9456382 17.1841222,2.08183488 16.1492623,2.00548574 L16,2 Z"/>
    <circle cx="10" cy="6" r="2"/> 
    <circle cx="10" cy="14" r="2"/> 
</svg>